<svg xmlns="http://www.w3.org/2000/svg" id="svg1" width="80" height="64" viewBox="0 0 80 64"><g id="layer1"><path id="rect1" d="M8.973.5 9 2.71v.79h3v-3H9V2L8.98.5ZM15 .5v3h3v-3Zm6 0v3h3v-3Zm6 0v3h3v-3Zm6 0v3h3v-3Zm6 0v3h3v-3Zm6 0v3h3v-3Zm6 0v3h3v-3Zm6 0v3h3v-3Zm6 0v3h3v-3Zm6.53.762L68.29 3.994c.71.322 1.357.807 1.87 1.399l2.267-1.963a8.5 8.5 0 0 0-2.898-2.168m-64.07.004a8.5 8.5 0 0 0-2.896 2.172l2.272 1.96a5.5 5.5 0 0 1 1.867-1.402Zm68.698 5.336-2.879.845c.146.498.22 1.025.221 1.553v.998h3V9c0-.806-.112-1.615-.342-2.398M.84 6.612A8.5 8.5 0 0 0 .5 9v1.006h3V9c0-.527.074-1.052.219-1.548Zm70.66 6.386v3h3v-3Zm-71 .008v3h3v-3Zm71 5.992v3h3v-3Zm-71 .008v3h3v-3Zm71 5.992v3h3v-3Zm-71 .008v3h3v-3Zm0 6v3h3v-3Zm0 6v3h3v-3Zm0 6v3h3v-3Zm3.223 5.555-2.881.837a8.4 8.4 0 0 0 1.734 3.178l2.264-1.969a5.5 5.5 0 0 1-1.117-2.047m2.994 3.449L5.47 54.738a8.5 8.5 0 0 0 3.535.762l-.004-3a5.5 5.5 0 0 1-2.285-.49m5.287.49v3h3v-3Zm6 0v3h3v-3Zm6 0v3h3v-3Zm6 0v3h3v-3Z" style="stroke-linejoin:round;stroke-dasharray:3 3;fill:#000;fill-opacity:1;stroke:none"/><path id="rect2" d="M48 32h22c5.54 0 10 4.46 10 10v12c0 5.54-4.46 10-10 10H48c-5.54 0-10-4.46-10-10V42c0-5.54 4.46-10 10-10" style="baseline-shift:baseline;vector-effect:none;stroke-linejoin:round;stroke-dasharray:3 3;enable-background:accumulate;stop-color:#000;stop-opacity:1;display:inline;overflow:visible"/><path id="path2" d="M59 40.5c-4.124 0-7.5 3.376-7.5 7.5s3.376 7.5 7.5 7.5 7.5-3.376 7.5-7.5-3.376-7.5-7.5-7.5m0 3c2.503 0 4.5 1.997 4.5 4.5s-1.997 4.5-4.5 4.5a4.477 4.477 0 0 1-4.5-4.5c0-2.503 1.997-4.5 4.5-4.5" style="fill:#fff;stroke-linejoin:round;stroke:none"/><path id="rect3" d="M52 28h14c1.662 0 3 1.338 3 3s-1.338 3-3 3H52c-1.662 0-3-1.338-3-3s1.338-3 3-3" style="stroke-width:3px;stroke-linejoin:round"/></g></svg>