<svg xmlns="http://www.w3.org/2000/svg" id="svg1" width="80" height="64" viewBox="0 0 80 64"><g id="layer1"><path id="path1" d="M5 42.5a2.5 2.5 0 0 0-1.768.732 2.5 2.5 0 0 0 0 3.535l15 15A2.5 2.5 0 0 0 20 62.5h40a2.5 2.5 0 0 0 1.768-.732l15-15a2.5 2.5 0 0 0 0-3.535 2.5 2.5 0 0 0-3.535 0L58.964 57.5h-37.93L6.768 43.232A2.5 2.5 0 0 0 5 42.5" style="stroke-linecap:round;stroke-linejoin:round"/><path id="rect3" d="M26.5.5C22.925.5 20 3.425 20 7v21c0 3.575 2.925 6.5 6.5 6.5h27c3.575 0 6.5-2.925 6.5-6.5V7C60 3.425 57.075.5 53.5.5Zm0 3h27A3.46 3.46 0 0 1 57 7v21a3.46 3.46 0 0 1-3.5 3.5h-27A3.46 3.46 0 0 1 23 28V7a3.46 3.46 0 0 1 3.5-3.5" style="stroke-linecap:round;stroke-linejoin:round"/><path id="path3" d="M40 31.5a1.5 1.5 0 0 0-1.5 1.5v17a1.5 1.5 0 0 0 1.5 1.5 1.5 1.5 0 0 0 1.5-1.5V33a1.5 1.5 0 0 0-1.5-1.5" style="stroke-linecap:round;stroke-linejoin:round"/><path id="path4" d="M30 38.5a1.5 1.5 0 0 0-1.06.44 1.5 1.5 0 0 0 0 2.121l10 10a1.5 1.5 0 0 0 2.121 0l10-10a1.5 1.5 0 0 0 0-2.121 1.5 1.5 0 0 0-2.121 0L40 47.878l-8.94-8.94A1.5 1.5 0 0 0 30 38.5" style="stroke-linecap:round;stroke-linejoin:round"/><path id="path5" d="M50.879 8.783a1.5 1.5 0 0 0-2.096.338l-11.896 16.47-5.758-6.58a1.5 1.5 0 1 0-2.258 1.977l7 8a1.5 1.5 0 0 0 2.346-.11l13-18a1.5 1.5 0 0 0-.338-2.096" style="stroke-linecap:round;stroke-linejoin:round"/></g></svg>