<?xml version="1.0" encoding="UTF-8" standalone="no"?>
<!-- Created with Inkscape (http://www.inkscape.org/) -->

<svg
   width="140"
   height="215"
   viewBox="0 0 140 215"
   version="1.1"
   id="svg1"
   inkscape:version="1.4 (86a8ad7, 2024-10-11)"
   sodipodi:docname="cash_stack.svg"
   xmlns:inkscape="http://www.inkscape.org/namespaces/inkscape"
   xmlns:sodipodi="http://sodipodi.sourceforge.net/DTD/sodipodi-0.dtd"
   xmlns="http://www.w3.org/2000/svg"
   xmlns:svg="http://www.w3.org/2000/svg"
   xmlns:rdf="http://www.w3.org/1999/02/22-rdf-syntax-ns#"
   xmlns:cc="http://creativecommons.org/ns#"
   xmlns:dc="http://purl.org/dc/elements/1.1/">
  <title
     id="title1">Stack of Bills</title>
  <sodipodi:namedview
     id="namedview1"
     pagecolor="#505050"
     bordercolor="#ffffff"
     borderopacity="1"
     inkscape:showpageshadow="0"
     inkscape:pageopacity="0"
     inkscape:pagecheckerboard="1"
     inkscape:deskcolor="#505050"
     inkscape:document-units="px"
     showgrid="true"
     inkscape:zoom="6.4462121"
     inkscape:cx="86.019509"
     inkscape:cy="96.56834"
     inkscape:window-width="1899"
     inkscape:window-height="2036"
     inkscape:window-x="2"
     inkscape:window-y="66"
     inkscape:window-maximized="0"
     inkscape:current-layer="layer1">
    <inkscape:grid
       id="grid1"
       units="px"
       originx="0"
       originy="0"
       spacingx="1"
       spacingy="1"
       empcolor="#0099e5"
       empopacity="0.30196078"
       color="#0099e5"
       opacity="0.14901961"
       empspacing="5"
       enabled="true"
       visible="true" />
  </sodipodi:namedview>
  <defs
     id="defs1" />
  <g
     inkscape:label="Layer 1"
     inkscape:groupmode="layer"
     id="layer1">
    <g
       id="rect4">
      <path
         style="fill:#44aa00;stroke-linejoin:round"
         d="M 5,5 H 95 V 170 H 5 Z"
         id="path4" />
      <path
         style="stroke-linejoin:round;fill:#008000"
         d="M 5,3.5 A 1.50015,1.50015 0 0 0 3.5,5 V 170 A 1.50015,1.50015 0 0 0 5,171.5 H 95 A 1.50015,1.50015 0 0 0 96.5,170 V 5 A 1.50015,1.50015 0 0 0 95,3.5 Z m 1.5,3 h 87 v 162 h -87 z"
         id="path5" />
    </g>
    <g
       id="rect5">
      <path
         style="fill:#44aa00;stroke-linejoin:round"
         d="m 15,15 h 90 V 180 H 15 Z"
         id="path2" />
      <path
         style="stroke-linejoin:round;fill:#008000"
         d="M 15,13.5 A 1.50015,1.50015 0 0 0 13.5,15 v 165 a 1.50015,1.50015 0 0 0 1.5,1.5 h 90 a 1.50015,1.50015 0 0 0 1.5,-1.5 V 15 A 1.50015,1.50015 0 0 0 105,13.5 Z m 1.5,3 h 87 v 162 h -87 z"
         id="path3" />
    </g>
    <g
       id="rect3">
      <path
         style="fill:#44aa00;stroke-linejoin:round"
         d="m 25,25 h 90 V 190 H 25 Z"
         id="path6" />
      <path
         style="stroke-linejoin:round;fill:#008000"
         d="M 25,23.5 A 1.50015,1.50015 0 0 0 23.5,25 v 165 a 1.50015,1.50015 0 0 0 1.5,1.5 h 90 a 1.50015,1.50015 0 0 0 1.5,-1.5 V 25 A 1.50015,1.50015 0 0 0 115,23.5 Z m 1.5,3 h 87 v 162 h -87 z"
         id="path7" />
    </g>
    <g
       id="rect2">
      <path
         style="fill:#44aa00;stroke-linejoin:round"
         d="m 35,35 h 90 V 200 H 35 Z"
         id="path8" />
      <path
         style="stroke-linejoin:round;fill:#008000"
         d="M 35,33.5 A 1.50015,1.50015 0 0 0 33.5,35 v 165 a 1.50015,1.50015 0 0 0 1.5,1.5 h 90 a 1.50015,1.50015 0 0 0 1.5,-1.5 V 35 A 1.50015,1.50015 0 0 0 125,33.5 Z m 1.5,3 h 87 v 162 h -87 z"
         id="path9" />
    </g>
    <g
       id="rect2-8"
       transform="translate(10,10)">
      <path
         style="fill:#44aa00;stroke-linejoin:round"
         d="m 35,35 h 90 V 200 H 35 Z"
         id="path8-2" />
      <path
         style="stroke-linejoin:round;fill:#008000"
         d="M 35,33.5 A 1.50015,1.50015 0 0 0 33.5,35 v 165 a 1.50015,1.50015 0 0 0 1.5,1.5 h 90 a 1.50015,1.50015 0 0 0 1.5,-1.5 V 35 A 1.50015,1.50015 0 0 0 125,33.5 Z m 1.5,3 h 87 v 162 h -87 z"
         id="path9-4" />
    </g>
    <circle
       style="fill:#41a300;stroke-width:3;stroke-linejoin:round;fill-opacity:1"
       id="path1"
       cx="83.931335"
       cy="120"
       r="23.931332" />
  </g>
  <metadata
     id="metadata1">
    <rdf:RDF>
      <cc:Work
         rdf:about="">
        <dc:title>Stack of Bills</dc:title>
        <dc:date>2025-05-30</dc:date>
        <dc:creator>
          <cc:Agent>
            <dc:title>Wake County Housing Justice Coalition</dc:title>
          </cc:Agent>
        </dc:creator>
      </cc:Work>
    </rdf:RDF>
  </metadata>
</svg>
