<?xml version="1.0" encoding="UTF-8" standalone="no"?>
<!-- Created with Inkscape (http://www.inkscape.org/) -->

<svg
   width="50"
   height="50"
   viewBox="0 0 50 50"
   version="1.1"
   id="svg1"
   inkscape:version="1.4 (86a8ad7, 2024-10-11)"
   sodipodi:docname="gear.svg"
   xmlns:inkscape="http://www.inkscape.org/namespaces/inkscape"
   xmlns:sodipodi="http://sodipodi.sourceforge.net/DTD/sodipodi-0.dtd"
   xmlns="http://www.w3.org/2000/svg"
   xmlns:svg="http://www.w3.org/2000/svg"
   xmlns:rdf="http://www.w3.org/1999/02/22-rdf-syntax-ns#"
   xmlns:cc="http://creativecommons.org/ns#"
   xmlns:dc="http://purl.org/dc/elements/1.1/">
  <title
     id="title2">Gear Icon</title>
  <sodipodi:namedview
     id="namedview1"
     pagecolor="#505050"
     bordercolor="#ffffff"
     borderopacity="1"
     inkscape:showpageshadow="0"
     inkscape:pageopacity="0"
     inkscape:pagecheckerboard="1"
     inkscape:deskcolor="#505050"
     inkscape:document-units="px"
     showgrid="true"
     inkscape:zoom="22.627417"
     inkscape:cx="21.522563"
     inkscape:cy="20.749165"
     inkscape:window-width="3814"
     inkscape:window-height="2036"
     inkscape:window-x="2"
     inkscape:window-y="66"
     inkscape:window-maximized="0"
     inkscape:current-layer="layer1">
    <inkscape:grid
       id="grid1"
       units="px"
       originx="0"
       originy="0"
       spacingx="1"
       spacingy="1"
       empcolor="#0099e5"
       empopacity="0.30196078"
       color="#0099e5"
       opacity="0.14901961"
       empspacing="5"
       enabled="true"
       visible="true" />
  </sodipodi:namedview>
  <defs
     id="defs1" />
  <g
     inkscape:label="Layer 1"
     inkscape:groupmode="layer"
     id="layer1">
    <path
       id="path1"
       style="stroke-width:3.571;stroke-linecap:round;stroke-linejoin:round;fill:#000000;stroke:none;stroke-dasharray:none"
       d="M 21.428571,0 V 3.9039249 A 21.428571,21.428571 0 0 0 17.557199,4.9641927 L 15.592448,1.5625 9.4075524,5.1339285 11.358352,8.5123703 A 21.428571,21.428571 0 0 0 8.5123703,11.358352 L 5.1339285,9.4075524 1.5625,15.592448 4.9641927,17.557199 A 21.428571,21.428571 0 0 0 3.9039249,21.428571 H 0 v 7.142858 h 3.9039249 a 21.428571,21.428571 0 0 0 1.0602678,3.871372 L 1.5625,34.407552 l 3.5714285,6.184896 3.3784418,-1.9508 a 21.428571,21.428571 0 0 0 2.8459817,2.845982 l -1.9507996,3.378442 6.1848956,3.571428 1.964751,-3.401692 a 21.428571,21.428571 0 0 0 3.871372,1.060266 V 50 h 7.142858 v -3.903926 a 21.428571,21.428571 0 0 0 3.871372,-1.060266 l 1.964751,3.401692 6.184896,-3.571428 -1.9508,-3.378442 a 21.428571,21.428571 0 0 0 2.845982,-2.845982 l 3.378442,1.9508 3.571428,-6.184896 -3.401692,-1.964751 a 21.428571,21.428571 0 0 0 1.060266,-3.871372 H 50 v -7.142858 h -3.878347 a 21.428571,21.428571 0 0 0 -1.041666,-3.89695 L 48.4375,15.592448 44.866072,9.4075524 41.510882,11.344401 A 21.428571,21.428571 0 0 0 38.655599,8.4891179 L 40.592448,5.1339285 34.407552,1.5625 32.468379,4.9200149 A 21.428571,21.428571 0 0 0 28.571429,3.8783483 V 0 Z M 25,13.095239 A 11.904761,11.904761 0 0 1 36.904761,25 11.904761,11.904761 0 0 1 25,36.904761 11.904761,11.904761 0 0 1 13.095239,25 11.904761,11.904761 0 0 1 25,13.095239 Z" />
  </g>
  <metadata
     id="metadata1">
    <rdf:RDF>
      <cc:Work
         rdf:about="">
        <dc:date>2025-06-15</dc:date>
        <dc:creator>
          <cc:Agent>
            <dc:title>Wake County Housing Justice Coalition</dc:title>
          </cc:Agent>
        </dc:creator>
        <dc:title>Gear Icon</dc:title>
      </cc:Work>
    </rdf:RDF>
  </metadata>
</svg>
