<?xml version="1.0" encoding="UTF-8" standalone="no"?>
<!-- Created with Inkscape (http://www.inkscape.org/) -->

<svg
   width="80"
   height="64"
   viewBox="0 0 80 64"
   version="1.1"
   id="svg1"
   inkscape:version="1.4 (86a8ad7, 2024-10-11)"
   sodipodi:docname="submit.svg"
   xmlns:inkscape="http://www.inkscape.org/namespaces/inkscape"
   xmlns:sodipodi="http://sodipodi.sourceforge.net/DTD/sodipodi-0.dtd"
   xmlns="http://www.w3.org/2000/svg"
   xmlns:svg="http://www.w3.org/2000/svg"
   xmlns:rdf="http://www.w3.org/1999/02/22-rdf-syntax-ns#"
   xmlns:cc="http://creativecommons.org/ns#"
   xmlns:dc="http://purl.org/dc/elements/1.1/">
  <title
     id="title4">Submit Button</title>
  <sodipodi:namedview
     id="namedview1"
     pagecolor="#505050"
     bordercolor="#ffffff"
     borderopacity="1"
     inkscape:showpageshadow="0"
     inkscape:pageopacity="0"
     inkscape:pagecheckerboard="1"
     inkscape:deskcolor="#505050"
     inkscape:document-units="px"
     showgrid="true"
     inkscape:zoom="22.627417"
     inkscape:cx="30.007844"
     inkscape:cy="25.698912"
     inkscape:window-width="3814"
     inkscape:window-height="2036"
     inkscape:window-x="2"
     inkscape:window-y="66"
     inkscape:window-maximized="0"
     inkscape:current-layer="layer1">
    <inkscape:grid
       id="grid1"
       units="px"
       originx="0"
       originy="0"
       spacingx="1"
       spacingy="1"
       empcolor="#0099e5"
       empopacity="0.30196078"
       color="#0099e5"
       opacity="0.14901961"
       empspacing="5"
       enabled="true"
       visible="true" />
    <inkscape:grid
       id="grid2"
       units="px"
       originx="0"
       originy="0"
       spacingx="1"
       spacingy="1"
       empcolor="#0099e5"
       empopacity="0.30196078"
       color="#0099e5"
       opacity="0.14901961"
       empspacing="5"
       enabled="true"
       visible="true" />
  </sodipodi:namedview>
  <defs
     id="defs1" />
  <g
     inkscape:label="Layer 1"
     inkscape:groupmode="layer"
     id="layer1">
    <path
       style="stroke-linecap:round;stroke-linejoin:round"
       d="m 5,42.5 a 2.5,2.5 0 0 0 -1.7675781,0.732422 2.5,2.5 0 0 0 0,3.535156 l 15.0000001,15 A 2.50025,2.50025 0 0 0 20,62.5 h 40 a 2.50025,2.50025 0 0 0 1.767578,-0.732422 l 15,-15 a 2.5,2.5 0 0 0 0,-3.535156 2.5,2.5 0 0 0 -3.535156,0 L 58.964844,57.5 H 21.035156 L 6.7675781,43.232422 A 2.5,2.5 0 0 0 5,42.5 Z"
       id="path1" />
    <path
       style="stroke-linecap:round;stroke-linejoin:round"
       d="M 26.5,0.5 C 22.924946,0.5 20,3.4249458 20,7 v 21 c 0,3.575054 2.924946,6.5 6.5,6.5 h 27 C 57.075054,34.5 60,31.575054 60,28 V 7 C 60,3.4249458 57.075054,0.5 53.5,0.5 Z m 0,3 h 27 C 55.464946,3.5 57,5.0350542 57,7 v 21 c 0,1.964946 -1.535054,3.5 -3.5,3.5 h -27 C 24.535054,31.5 23,29.964946 23,28 V 7 c 0,-1.9649458 1.535054,-3.5 3.5,-3.5 z"
       id="rect3" />
    <path
       style="stroke-linecap:round;stroke-linejoin:round"
       d="M 40,31.5 A 1.5,1.5 0 0 0 38.5,33 V 50 A 1.5,1.5 0 0 0 40,51.5 1.5,1.5 0 0 0 41.5,50 V 33 A 1.5,1.5 0 0 0 40,31.5 Z"
       id="path3" />
    <path
       style="stroke-linecap:round;stroke-linejoin:round"
       d="m 30,38.5 a 1.5,1.5 0 0 0 -1.060547,0.439453 1.5,1.5 0 0 0 0,2.121094 l 10,10 a 1.50015,1.50015 0 0 0 2.121094,0 l 10,-10 a 1.5,1.5 0 0 0 0,-2.121094 1.5,1.5 0 0 0 -2.121094,0 L 40,47.878906 31.060547,38.939453 A 1.5,1.5 0 0 0 30,38.5 Z"
       id="path4" />
    <path
       style="stroke-linecap:round;stroke-linejoin:round"
       d="M 50.878906,8.7832031 C 50.207029,8.2972008 49.268288,8.4485542 48.783203,9.1210938 L 36.886719,25.591797 31.128906,19.011719 c -0.545713,-0.623679 -1.493782,-0.686651 -2.117187,-0.140625 -0.623679,0.545713 -0.686651,1.493782 -0.140625,2.117187 l 7,8 c 0.635116,0.726414 1.780938,0.672987 2.345703,-0.109375 l 13,-18 c 0.486002,-0.671877 0.334649,-1.6106181 -0.337891,-2.0957029 z"
       id="path5"
       sodipodi:nodetypes="cccccccccc" />
  </g>
  <metadata
     id="metadata1">
    <rdf:RDF>
      <cc:Work
         rdf:about="">
        <dc:date>2025-06-14</dc:date>
        <dc:creator>
          <cc:Agent>
            <dc:title>Wake County Housing Justice Coalition</dc:title>
          </cc:Agent>
        </dc:creator>
        <dc:title>Submit Button</dc:title>
      </cc:Work>
    </rdf:RDF>
  </metadata>
</svg>
